<mxfile host="app.diagrams.net" agent="Mozilla/5.0 (Macintosh; Intel Mac OS X 10_15_7) AppleWebKit/605.1.15 (KHTML, like Gecko) Version/17.5 Safari/605.1.15" version="26.2.5">
  <diagram id="Ht1M8jgEwFfnCIfOTk4-" name="Page-1">
    <mxGraphModel dx="948" dy="572" grid="1" gridSize="10" guides="1" tooltips="1" connect="1" arrows="1" fold="1" page="1" pageScale="1" pageWidth="827" pageHeight="1169" background="none" math="0" shadow="0">
      <root>
        <mxCell id="0" />
        <mxCell id="1" parent="0" />
        <mxCell id="U0234lUq_5A5ovXBIxbo-61" value="Backend" style="fillColor=#EFF0F3;strokeColor=none;dashed=0;verticalAlign=top;fontStyle=0;fontColor=#232F3D;whiteSpace=wrap;html=1;" vertex="1" parent="1">
          <mxGeometry x="375" y="170" width="190" height="415" as="geometry" />
        </mxCell>
        <mxCell id="U0234lUq_5A5ovXBIxbo-60" value="AI" style="fillColor=#EFF0F3;strokeColor=none;dashed=0;verticalAlign=top;fontStyle=0;fontColor=#232F3D;whiteSpace=wrap;html=1;" vertex="1" parent="1">
          <mxGeometry x="80" y="175" width="190" height="415" as="geometry" />
        </mxCell>
        <mxCell id="U0234lUq_5A5ovXBIxbo-42" style="edgeStyle=orthogonalEdgeStyle;rounded=0;orthogonalLoop=1;jettySize=auto;html=1;entryX=1;entryY=0.5;entryDx=0;entryDy=0;" edge="1" parent="1" source="U0234lUq_5A5ovXBIxbo-18" target="U0234lUq_5A5ovXBIxbo-33">
          <mxGeometry relative="1" as="geometry" />
        </mxCell>
        <mxCell id="U0234lUq_5A5ovXBIxbo-50" style="edgeStyle=orthogonalEdgeStyle;rounded=0;orthogonalLoop=1;jettySize=auto;html=1;entryX=0;entryY=0.5;entryDx=0;entryDy=0;" edge="1" parent="1" source="U0234lUq_5A5ovXBIxbo-18" target="U0234lUq_5A5ovXBIxbo-49">
          <mxGeometry relative="1" as="geometry" />
        </mxCell>
        <mxCell id="U0234lUq_5A5ovXBIxbo-18" value="Backend Server" style="rounded=1;whiteSpace=wrap;html=1;" vertex="1" parent="1">
          <mxGeometry x="410" y="350" width="120" height="60" as="geometry" />
        </mxCell>
        <mxCell id="U0234lUq_5A5ovXBIxbo-40" style="edgeStyle=orthogonalEdgeStyle;rounded=0;orthogonalLoop=1;jettySize=auto;html=1;" edge="1" parent="1" source="U0234lUq_5A5ovXBIxbo-21" target="U0234lUq_5A5ovXBIxbo-18">
          <mxGeometry relative="1" as="geometry" />
        </mxCell>
        <mxCell id="U0234lUq_5A5ovXBIxbo-62" style="edgeStyle=orthogonalEdgeStyle;rounded=0;orthogonalLoop=1;jettySize=auto;html=1;entryX=1;entryY=0.25;entryDx=0;entryDy=0;" edge="1" parent="1" source="U0234lUq_5A5ovXBIxbo-21" target="U0234lUq_5A5ovXBIxbo-33">
          <mxGeometry relative="1" as="geometry">
            <Array as="points">
              <mxPoint x="320" y="250" />
              <mxPoint x="320" y="370" />
            </Array>
          </mxGeometry>
        </mxCell>
        <mxCell id="U0234lUq_5A5ovXBIxbo-66" style="edgeStyle=orthogonalEdgeStyle;rounded=0;orthogonalLoop=1;jettySize=auto;html=1;entryX=1;entryY=0.25;entryDx=0;entryDy=0;" edge="1" parent="1" source="U0234lUq_5A5ovXBIxbo-21" target="U0234lUq_5A5ovXBIxbo-29">
          <mxGeometry relative="1" as="geometry">
            <Array as="points">
              <mxPoint x="320" y="250" />
              <mxPoint x="320" y="520" />
            </Array>
          </mxGeometry>
        </mxCell>
        <mxCell id="U0234lUq_5A5ovXBIxbo-21" value="Database&lt;div&gt;(mysql)&lt;/div&gt;" style="shape=cylinder3;whiteSpace=wrap;html=1;boundedLbl=1;backgroundOutline=1;size=15;" vertex="1" parent="1">
          <mxGeometry x="440" y="210" width="60" height="80" as="geometry" />
        </mxCell>
        <mxCell id="U0234lUq_5A5ovXBIxbo-31" style="edgeStyle=orthogonalEdgeStyle;rounded=0;orthogonalLoop=1;jettySize=auto;html=1;entryX=0.5;entryY=1;entryDx=0;entryDy=0;" edge="1" parent="1" source="U0234lUq_5A5ovXBIxbo-29" target="U0234lUq_5A5ovXBIxbo-18">
          <mxGeometry relative="1" as="geometry" />
        </mxCell>
        <mxCell id="U0234lUq_5A5ovXBIxbo-29" value="RAG sLLM&amp;nbsp;" style="rounded=1;whiteSpace=wrap;html=1;" vertex="1" parent="1">
          <mxGeometry x="120" y="510" width="100" height="40" as="geometry" />
        </mxCell>
        <mxCell id="U0234lUq_5A5ovXBIxbo-58" style="edgeStyle=orthogonalEdgeStyle;rounded=0;orthogonalLoop=1;jettySize=auto;html=1;entryX=0;entryY=0.5;entryDx=0;entryDy=0;" edge="1" parent="1" source="U0234lUq_5A5ovXBIxbo-32" target="U0234lUq_5A5ovXBIxbo-33">
          <mxGeometry relative="1" as="geometry">
            <Array as="points">
              <mxPoint x="100" y="240" />
              <mxPoint x="100" y="380" />
            </Array>
          </mxGeometry>
        </mxCell>
        <mxCell id="U0234lUq_5A5ovXBIxbo-32" value="&lt;div&gt;&lt;br&gt;&lt;/div&gt;Deep Learning Predict&lt;div&gt;&lt;br&gt;&lt;/div&gt;" style="rounded=1;whiteSpace=wrap;html=1;" vertex="1" parent="1">
          <mxGeometry x="120" y="220" width="100" height="40" as="geometry" />
        </mxCell>
        <mxCell id="U0234lUq_5A5ovXBIxbo-38" style="edgeStyle=orthogonalEdgeStyle;rounded=0;orthogonalLoop=1;jettySize=auto;html=1;" edge="1" parent="1" source="U0234lUq_5A5ovXBIxbo-33" target="U0234lUq_5A5ovXBIxbo-29">
          <mxGeometry relative="1" as="geometry" />
        </mxCell>
        <mxCell id="U0234lUq_5A5ovXBIxbo-45" style="edgeStyle=orthogonalEdgeStyle;rounded=0;orthogonalLoop=1;jettySize=auto;html=1;entryX=0.5;entryY=1;entryDx=0;entryDy=0;" edge="1" parent="1" source="U0234lUq_5A5ovXBIxbo-33" target="U0234lUq_5A5ovXBIxbo-44">
          <mxGeometry relative="1" as="geometry" />
        </mxCell>
        <mxCell id="U0234lUq_5A5ovXBIxbo-55" style="edgeStyle=orthogonalEdgeStyle;rounded=0;orthogonalLoop=1;jettySize=auto;html=1;" edge="1" parent="1" source="U0234lUq_5A5ovXBIxbo-33" target="U0234lUq_5A5ovXBIxbo-18">
          <mxGeometry relative="1" as="geometry" />
        </mxCell>
        <mxCell id="U0234lUq_5A5ovXBIxbo-33" value="AI Model server" style="rounded=1;whiteSpace=wrap;html=1;" vertex="1" parent="1">
          <mxGeometry x="120" y="360" width="100" height="40" as="geometry" />
        </mxCell>
        <mxCell id="U0234lUq_5A5ovXBIxbo-41" style="edgeStyle=orthogonalEdgeStyle;rounded=0;orthogonalLoop=1;jettySize=auto;html=1;entryX=0.5;entryY=1;entryDx=0;entryDy=0;entryPerimeter=0;" edge="1" parent="1" source="U0234lUq_5A5ovXBIxbo-18" target="U0234lUq_5A5ovXBIxbo-21">
          <mxGeometry relative="1" as="geometry" />
        </mxCell>
        <mxCell id="U0234lUq_5A5ovXBIxbo-47" style="edgeStyle=orthogonalEdgeStyle;rounded=0;orthogonalLoop=1;jettySize=auto;html=1;entryX=0.5;entryY=1;entryDx=0;entryDy=0;" edge="1" parent="1" source="U0234lUq_5A5ovXBIxbo-44" target="U0234lUq_5A5ovXBIxbo-32">
          <mxGeometry relative="1" as="geometry" />
        </mxCell>
        <mxCell id="U0234lUq_5A5ovXBIxbo-56" style="edgeStyle=orthogonalEdgeStyle;rounded=0;orthogonalLoop=1;jettySize=auto;html=1;" edge="1" parent="1" source="U0234lUq_5A5ovXBIxbo-44" target="U0234lUq_5A5ovXBIxbo-33">
          <mxGeometry relative="1" as="geometry" />
        </mxCell>
        <mxCell id="U0234lUq_5A5ovXBIxbo-44" value="Automation EDA" style="rounded=1;whiteSpace=wrap;html=1;" vertex="1" parent="1">
          <mxGeometry x="120" y="290" width="100" height="30" as="geometry" />
        </mxCell>
        <mxCell id="U0234lUq_5A5ovXBIxbo-54" style="edgeStyle=orthogonalEdgeStyle;rounded=0;orthogonalLoop=1;jettySize=auto;html=1;entryX=1;entryY=0.5;entryDx=0;entryDy=0;" edge="1" parent="1" source="U0234lUq_5A5ovXBIxbo-49" target="U0234lUq_5A5ovXBIxbo-18">
          <mxGeometry relative="1" as="geometry" />
        </mxCell>
        <mxCell id="U0234lUq_5A5ovXBIxbo-49" value="Frontend Server" style="rounded=1;whiteSpace=wrap;html=1;" vertex="1" parent="1">
          <mxGeometry x="590" y="350" width="120" height="60" as="geometry" />
        </mxCell>
        <mxCell id="U0234lUq_5A5ovXBIxbo-51" value="" style="shape=actor;whiteSpace=wrap;html=1;" vertex="1" parent="1">
          <mxGeometry x="750" y="340" width="40" height="60" as="geometry" />
        </mxCell>
        <mxCell id="U0234lUq_5A5ovXBIxbo-52" value="User" style="text;html=1;align=center;verticalAlign=middle;resizable=0;points=[];autosize=1;strokeColor=none;fillColor=none;" vertex="1" parent="1">
          <mxGeometry x="745" y="400" width="50" height="30" as="geometry" />
        </mxCell>
        <mxCell id="U0234lUq_5A5ovXBIxbo-53" style="edgeStyle=orthogonalEdgeStyle;rounded=0;orthogonalLoop=1;jettySize=auto;html=1;entryX=1.007;entryY=0.347;entryDx=0;entryDy=0;entryPerimeter=0;" edge="1" parent="1" source="U0234lUq_5A5ovXBIxbo-51" target="U0234lUq_5A5ovXBIxbo-49">
          <mxGeometry relative="1" as="geometry" />
        </mxCell>
        <mxCell id="U0234lUq_5A5ovXBIxbo-63" value="read-only" style="text;html=1;align=center;verticalAlign=middle;resizable=0;points=[];autosize=1;strokeColor=none;fillColor=none;" vertex="1" parent="1">
          <mxGeometry x="310" y="225" width="70" height="30" as="geometry" />
        </mxCell>
      </root>
    </mxGraphModel>
  </diagram>
</mxfile>
